<svg width="74" height="74" viewBox="0 0 74 74" fill="none" xmlns="http://www.w3.org/2000/svg">
<path fill-rule="evenodd" clip-rule="evenodd" d="M62.1023 11.8977C75.9659 25.7613 75.9659 48.2387 62.1023 62.1023C48.2387 75.9659 25.7613 75.9659 11.8977 62.1023C-1.9659 48.2387 -1.9659 25.7613 11.8977 11.8977C25.7613 -1.9659 48.2387 -1.9659 62.1023 11.8977ZM63.1629 10.837C77.6123 25.2864 77.6123 48.7136 63.1629 63.1629C48.7136 77.6124 25.2864 77.6124 10.837 63.1629C-3.61235 48.7136 -3.61235 25.2864 10.837 10.837C25.2864 -3.61235 48.7136 -3.61235 63.1629 10.837ZM28.8683 22.815C28.4541 22.815 28.1183 23.1508 28.1183 23.565C28.1183 23.9792 28.4541 24.315 28.8683 24.315H48.2709L22.6811 49.9047C22.3883 50.1976 22.3883 50.6725 22.6811 50.9654C22.974 51.2583 23.4489 51.2583 23.7418 50.9654L49.5338 25.1734L49.9117 45.6262C49.9194 46.0403 50.2613 46.3699 50.6754 46.3622C51.0896 46.3546 51.4191 46.0126 51.4115 45.5985L51.0064 23.6782C51.0012 23.3946 50.8393 23.1507 50.6047 23.0276C50.5345 22.9592 50.4542 22.9073 50.3686 22.8719C50.2802 22.8352 50.1832 22.815 50.0815 22.815H28.8683Z" fill="#767676"/>
</svg>
