;<svg width="74" height="74" viewBox="0 0 74 74" fill="none" xmlns="http://www.w3.org/2000/svg">
  <path
    fill-rule="evenodd"
    clip-rule="evenodd"
    d="M72.5 37C72.5 56.6061 56.6061 72.5 37 72.5C17.3939 72.5 1.5 56.6061 1.5 37C1.5 17.3939 17.3939 1.5 37 1.5C56.6061 1.5 72.5 17.3939 72.5 37ZM74 37C74 57.4345 57.4345 74 37 74C16.5655 74 0 57.4345 0 37C0 16.5655 16.5655 0 37 0C57.4345 0 74 16.5655 74 37ZM41.2803 21.2197C40.9874 20.9268 40.5126 20.9268 40.2197 21.2197C39.9268 21.5126 39.9268 21.9874 40.2197 22.2803L53.9393 36H17.75C17.3358 36 17 36.3358 17 36.75C17 37.1642 17.3358 37.5 17.75 37.5H54.2254L40.0303 52.2296C39.7428 52.5278 39.7516 53.0026 40.0499 53.29C40.3481 53.5775 40.8229 53.5687 41.1104 53.2704L56.324 37.4841C56.5208 37.2798 56.5787 36.9929 56.4999 36.7399C56.4986 36.6419 56.4785 36.5484 56.4431 36.4629C56.4065 36.3745 56.3522 36.2916 56.2803 36.2197L41.2803 21.2197Z"
    fill="white"
  />
</svg>
